<svg id="Layer_1" data-name="Layer 1" xmlns="http://www.w3.org/2000/svg" xmlns:xlink="http://www.w3.org/1999/xlink" viewBox="0 0 996.08 142.62"><defs><style>.cls-1,.cls-15,.cls-19,.cls-36,.cls-43{fill:none;}.cls-14,.cls-2{fill:#fff;}.cls-3{fill:#e9d5b0;}.cls-14,.cls-18,.cls-20,.cls-3,.cls-42{fill-rule:evenodd;}.cls-4{clip-path:url(#clip-path);}.cls-5{fill:url(#linear-gradient);}.cls-6{clip-path:url(#clip-path-2);}.cls-7{fill:url(#linear-gradient-2);}.cls-8{clip-path:url(#clip-path-3);}.cls-9{fill:url(#linear-gradient-3);}.cls-10{clip-path:url(#clip-path-4);}.cls-11{clip-path:url(#clip-path-5);}.cls-12{clip-path:url(#clip-path-6);}.cls-13{fill:url(#radial-gradient);}.cls-15{stroke:#fff;}.cls-15,.cls-19,.cls-36,.cls-43{stroke-miterlimit:2.61;stroke-width:0;}.cls-16{clip-path:url(#clip-path-7);}.cls-17{fill:url(#radial-gradient-2);}.cls-18{fill:#c9a42e;}.cls-19{stroke:#c9a42e;}.cls-20,.cls-35{fill:#f9c911;}.cls-21{clip-path:url(#clip-path-8);}.cls-22{clip-path:url(#clip-path-9);}.cls-23{fill:url(#linear-gradient-4);}.cls-24{clip-path:url(#clip-path-10);}.cls-25{clip-path:url(#clip-path-11);}.cls-26{fill:url(#linear-gradient-5);}.cls-27{clip-path:url(#clip-path-12);}.cls-28{clip-path:url(#clip-path-13);}.cls-29{fill:url(#linear-gradient-6);}.cls-30{clip-path:url(#clip-path-14);}.cls-31{clip-path:url(#clip-path-15);}.cls-32{fill:url(#linear-gradient-7);}.cls-33{clip-path:url(#clip-path-16);}.cls-34{fill:url(#linear-gradient-8);}.cls-36{stroke:#f9c911;}.cls-37{clip-path:url(#clip-path-18);}.cls-38{clip-path:url(#clip-path-19);}.cls-39{clip-path:url(#clip-path-20);}.cls-40{clip-path:url(#clip-path-21);}.cls-41{clip-path:url(#clip-path-22);}.cls-42{fill:#aa9176;}.cls-43{stroke:#aa9176;}.cls-44{fill:url(#linear-gradient-9);}.cls-45{fill:url(#linear-gradient-10);}.cls-46{fill:#6d4d32;}.cls-47{fill:#405864;}</style><clipPath id="clip-path"><path class="cls-1" d="M506.28,5.05l-1.09-.21c-1.83-.37-3.72-.74-5.52-1a.34.34,0,0,0-.29.08.36.36,0,0,0-.13.26l-.05,1.43v.86c-1.49-.21-2.9-.36-4.38-.51l-1.2-.13V3.38a.36.36,0,0,0-.32-.35c-2.12-.21-4.3-.38-6.48-.52a.35.35,0,0,0-.27.1.36.36,0,0,0-.11.26V5.26c-1.88-.08-3.81-.14-5.74-.18V2.65a.36.36,0,0,0-.36-.35h-2.68c-1.26,0-2.53,0-3.79,0a.36.36,0,0,0-.36.35V5.1c-1.88.05-3.8.11-5.74.2V2.9a.32.32,0,0,0-.12-.26.36.36,0,0,0-.27-.1c-2.11.14-4.29.31-6.47.53a.35.35,0,0,0-.33.35V5.84c-1.95.21-3.63.42-5.47.67V4.07a.35.35,0,0,0-.42-.35c-1.37.22-2.87.53-4.31.84L448,5.05a.36.36,0,0,0-.29.35V8a.47.47,0,0,0,0,.17l1.06,2a.37.37,0,0,0,.28.19.44.44,0,0,0,.16,0,175.67,175.67,0,0,1,27.06-2.27c9.15,0,18.13,1.08,28.79,2.75h.05a.35.35,0,0,0,.24-.08.34.34,0,0,0,.12-.27v-.32c.28-.55.57-1.09.86-1.63l.2-.38a.47.47,0,0,0,0-.17V5.4A.35.35,0,0,0,506.28,5.05Z"/></clipPath><linearGradient id="linear-gradient" x1="445.79" y1="6.21" x2="509.46" y2="6.21" gradientUnits="userSpaceOnUse"><stop offset="0" stop-color="#d7b46d"/><stop offset="0.51" stop-color="#ecd8b0"/><stop offset="0.52" stop-color="#ecd7af"/><stop offset="1" stop-color="#d7b46b"/></linearGradient><clipPath id="clip-path-2"><path class="cls-1" d="M448.86,10.8a181.88,181.88,0,0,1,29.23-2.46,144.17,144.17,0,0,1,27.28,2.46l-.49.83-1.76,1.65a196.66,196.66,0,0,0-26.26-2.19,177.83,177.83,0,0,0-25.47,2.19Z"/></clipPath><linearGradient id="linear-gradient-2" x1="448.55" y1="10.67" x2="505.79" y2="10.67" gradientUnits="userSpaceOnUse"><stop offset="0" stop-color="#b69544"/><stop offset="0.51" stop-color="#c6a765"/><stop offset="1" stop-color="#b79542"/></linearGradient><clipPath id="clip-path-3"><path class="cls-1" d="M447.7,27.13s14.66-1.72,30.44-2.06a147.1,147.1,0,0,1,28.92,2.17c0,.08-6.16-14.18-6.16-14.18s-10.42-1.32-22.9-1.64a141.71,141.71,0,0,0-24.44,1.75Z"/></clipPath><linearGradient id="linear-gradient-3" x1="447.37" y1="19.31" x2="507.61" y2="19.31" gradientUnits="userSpaceOnUse"><stop offset="0" stop-color="#dab772"/><stop offset="0.51" stop-color="#dfc18a"/><stop offset="1" stop-color="#dab772"/></linearGradient><clipPath id="clip-path-4"><path class="cls-1" d="M478.27,25a228.41,228.41,0,0,0-37.84,3.27L426,46.64c22,14-.23,29.48-.23,50.52s44.05,29.27,51.39,43.3c7.34-14,51.38-22.27,51.38-43.3s-22.25-36.5-.22-50.52L513.84,28.26A190.51,190.51,0,0,0,478.28,25Z"/></clipPath><clipPath id="clip-path-5"><path class="cls-1" d="M442.84,32.26,432,45.8c4.11,3.42,7.17,7.72,7.8,13.32.75,6.65-2.19,13.33-4.69,19.36s-5,12.13-5,18.68a10.48,10.48,0,0,0,.48,3.13c2.47,8,14.95,14.59,21.93,18.29,5.51,2.92,11.2,5.68,16.53,8.93a47,47,0,0,1,8.21,5.84,44.83,44.83,0,0,1,7.88-5.84c5.33-3.25,11-6,16.53-8.93,7.46-4,22.41-11.63,22.41-21.42,0-6.55-2.5-12.71-5-18.68s-5.39-12.7-4.64-19.35c.63-5.6,3.71-9.76,7.83-13.18L511.4,32.22a185.5,185.5,0,0,0-33.12-2.9,222.21,222.21,0,0,0-35.44,2.94"/></clipPath><clipPath id="clip-path-6"><rect class="cls-1" x="427.88" y="27.15" width="99.49" height="108.62"/></clipPath><radialGradient id="radial-gradient" cx="467.43" cy="82.55" r="52.81" gradientTransform="translate(3.74) scale(1.01 1)" gradientUnits="userSpaceOnUse"><stop offset="0" stop-color="#00a468"/><stop offset="0.39" stop-color="#009b5f"/><stop offset="1" stop-color="#008547"/></radialGradient><clipPath id="clip-path-7"><path class="cls-1" d="M448.73,76.93h56.78c.46-18.14-9-36.75-28.39-36.75s-28.85,18.61-28.39,36.75"/></clipPath><radialGradient id="radial-gradient-2" cx="457.53" cy="71.37" r="38.11" gradientTransform="translate(3.74) scale(1.01 1)" gradientUnits="userSpaceOnUse"><stop offset="0" stop-color="#dfefdf"/><stop offset="0.14" stop-color="#d6ece0"/><stop offset="0.37" stop-color="#bde4e2"/><stop offset="0.65" stop-color="#95d6e6"/><stop offset="0.99" stop-color="#5dc4ec"/><stop offset="1" stop-color="#5bc3ec"/></radialGradient><clipPath id="clip-path-8"><path class="cls-1" d="M448.71,75.73c0,1.35.07,2.7.18,4,6.58.21,15.05-.18,15.26,1.07,0,.17.37.08.68,0s.58-.17.41,0c-3,3.34.72,9.09,4.52,12,11.84,9.17,7.51,14.33-2.07,16.4a26.46,26.46,0,0,0,9.43,1.66c10.93,0,18.68-5.85,23.3-14.19-7.08-2.81-19.07-4.28-21.86-10.57-.91-2.07,4.74-6,5.62-7.68,1.71-3.28-9.39-2.58-9.09-2.81l-26.18-.14c.09,0,0,.07-.2.17"/></clipPath><clipPath id="clip-path-9"><rect class="cls-1" x="446.09" y="73.84" width="56.85" height="39.42"/></clipPath><linearGradient id="linear-gradient-4" x1="446.5" y1="97.13" x2="502" y2="97.13" gradientUnits="userSpaceOnUse"><stop offset="0" stop-color="#fff"/><stop offset="0.18" stop-color="#fffbf6"/><stop offset="0.48" stop-color="#fdeedd"/><stop offset="0.85" stop-color="#fbdbb5"/><stop offset="1" stop-color="#fad2a3"/></linearGradient><clipPath id="clip-path-10"><path class="cls-1" d="M448.72,75.38c-1.47,7.78,1.91,19.85,9,27.38,5.79,6.18,14,8.85,17.36,8.36.66-.1,1.24.21,1.45-.19,7.28-13.72-19.27-29.08-.41-35.18,3.47-1.13-19.32-.18-27.36-.18"/></clipPath><clipPath id="clip-path-11"><rect class="cls-1" x="446.03" y="73.92" width="39.37" height="39.42"/></clipPath><linearGradient id="linear-gradient-5" x1="447.78" y1="93.07" x2="485.14" y2="93.07" gradientUnits="userSpaceOnUse"><stop offset="0" stop-color="#00adb3"/><stop offset="0.18" stop-color="#09afb5"/><stop offset="0.47" stop-color="#22b4b9"/><stop offset="0.84" stop-color="#4abdc1"/><stop offset="1" stop-color="#5ec1c5"/></linearGradient><clipPath id="clip-path-12"><path class="cls-1" d="M502.08,59.16c-6.71.07-5.89,8-10.52,8.54-1.1.11-4-1-5.93-1.25-2.6-.42-7.7,5.82-8.81,9.09h28.71A46.29,46.29,0,0,0,502.6,59.2a3.89,3.89,0,0,0-.49,0Z"/></clipPath><clipPath id="clip-path-13"><path class="cls-1" d="M502.08,59.16c-6.71.07-6.09,7.91-10.72,8.4-1.1.11-3.83-.81-5.73-1.11-2.6-.42-7.7,5.82-8.81,9.09h28.71A46.29,46.29,0,0,0,502.6,59.2a3.89,3.89,0,0,0-.49,0Z"/></clipPath><linearGradient id="linear-gradient-6" x1="491.35" y1="58.08" x2="491.35" y2="75.43" gradientUnits="userSpaceOnUse"><stop offset="0" stop-color="#15a476"/><stop offset="0.32" stop-color="#109c6d"/><stop offset="0.85" stop-color="#048654"/><stop offset="1" stop-color="#007f4c"/></linearGradient><clipPath id="clip-path-14"><path class="cls-1" d="M478.82,91.36c4.66,4.86,13.2,5.51,19.48,8.75,4.77-6.57,7.18-15.38,7.22-24.21L477,75.56c-2.6,4.06-4,9.66,1.87,15.8"/></clipPath><clipPath id="clip-path-15"><rect class="cls-1" x="470.59" y="74.62" width="39.08" height="28.03"/></clipPath><linearGradient id="linear-gradient-7" x1="472.3" y1="89.6" x2="506.14" y2="89.6" gradientUnits="userSpaceOnUse"><stop offset="0" stop-color="#e8b589"/><stop offset="0.31" stop-color="#e3ae80"/><stop offset="0.82" stop-color="#d49967"/><stop offset="1" stop-color="#ce915d"/></linearGradient><clipPath id="clip-path-16"><path class="cls-1" d="M490.4,75h15.12a49.81,49.81,0,0,0-.48-6.23c-1.47-.19-3.7-.73-5.28-.92l-.29,0c-2.58,0-4.17,4.13-9.07,7.17"/></clipPath><linearGradient id="linear-gradient-8" x1="499.43" y1="67.81" x2="499.43" y2="75.59" xlink:href="#linear-gradient-6"/><clipPath id="clip-path-18"><path class="cls-1" d="M464,53.68a.58.58,0,0,0,.59.58.58.58,0,1,0,0-1.16.58.58,0,0,0-.59.58"/></clipPath><clipPath id="clip-path-19"><polygon class="cls-1" points="463.37 59.88 462.88 67.86 466.3 67.86 465.8 59.88 463.37 59.88"/></clipPath><clipPath id="clip-path-20"><rect class="cls-1" x="462.47" y="58.41" width="4.18" height="1.37"/></clipPath><clipPath id="clip-path-21"><polygon class="cls-1" points="467.48 62.75 467.48 63.88 466.32 63.88 466.32 62.75 465.16 62.75 465.16 63.88 464.01 63.88 464.01 62.75 462.86 62.75 462.86 63.88 461.7 63.88 461.7 62.75 460.54 62.75 460.54 74.76 468.63 74.76 468.63 63.88 468.63 62.75 467.48 62.75"/></clipPath><clipPath id="clip-path-22"><path class="cls-1" d="M462.62,55.86v.19h3.88v-.19c0-.79-.87-1.44-1.94-1.44s-1.94.64-1.94,1.44"/></clipPath><linearGradient id="linear-gradient-9" x1="460.5" y1="68.73" x2="468.91" y2="68.73" gradientUnits="userSpaceOnUse"><stop offset="0" stop-color="#dad9d8"/><stop offset="0.34" stop-color="#e1e1e1"/><stop offset="0.9" stop-color="#f5f7fa"/><stop offset="1" stop-color="#f9fcff"/></linearGradient><linearGradient id="linear-gradient-10" x1="462.66" y1="57.59" x2="466.94" y2="57.59" xlink:href="#linear-gradient-9"/></defs><path class="cls-2" d="M550,48.64V48l4.31-5.35H555a13.28,13.28,0,0,0,8,3.47c2.25,0,3.71-.71,3.71-1.88,0-1.64-2.07-1.78-5.12-2.63-4.7-1.31-10.23-3.94-10.23-10,0-5.58,5-9.43,12.25-9.43,5.16,0,9.85,2,12.15,4.55v.66l-4.36,5.16h-.66a10.79,10.79,0,0,0-6.94-3.1c-1.79,0-3,.66-3,1.74,0,1.5,2.11,2.21,4.18,2.82,5.25,1.5,11.21,3.28,11.21,10.18,0,6.34-5.91,9.62-12.72,9.62C557.73,53.85,552.76,51.69,550,48.64Z"/><path class="cls-2" d="M592,30.29v4.22h10.61v7.05H592v4.22h14.08v7.51H582.74V22.78H606v7.51Z"/><path class="cls-2" d="M610.62,38c0-9,7.32-15.81,17-15.81a16.63,16.63,0,0,1,12.86,5.86v.66l-5.63,4.79h-.66a9.11,9.11,0,0,0-6.61-3,7.47,7.47,0,1,0,0,14.93,9.11,9.11,0,0,0,6.61-3h.66l5.63,4.79V48a16.6,16.6,0,0,1-13,5.86C618,53.85,610.62,47.09,610.62,38Z"/><path class="cls-2" d="M673.05,52.59l-.43.7h-9.24l-5.78-10.7h-2.2v10.7h-9.3V22.78h14c8,0,12.35,3.94,12.35,10.19,0,4-2.26,6.75-5.59,8.3ZM655.4,36.49h4.31a3,3,0,0,0,3.24-3,3.07,3.07,0,0,0-3.24-3.19H655.4Z"/><path class="cls-2" d="M688.53,30.29v4.22h10.61v7.05H688.53v4.22h14.08v7.51H679.24V22.78h23.23v7.51Z"/><path class="cls-2" d="M725.56,53.29h-9.29v-23H707V22.78h27.89v7.51h-9.3Z"/><path class="cls-2" d="M767.43,52.59l-.43.7h-9.48l-1.78-4.6H744.8l-1.87,4.6h-9.06l-.42-.7,14-29.81h5.91Zm-14-10-2.95-7.79-3.2,7.79Z"/><path class="cls-2" d="M799.15,52.59l-.42.7h-9.25l-5.77-10.7h-2.2v10.7h-9.3V22.78h14c8,0,12.34,3.94,12.34,10.19,0,4-2.25,6.75-5.58,8.3Zm-17.64-16.1h4.31a3,3,0,0,0,3.24-3,3.07,3.07,0,0,0-3.24-3.19h-4.31Z"/><path class="cls-2" d="M814.64,22.78V53.29h-9.29V22.78Z"/><path class="cls-2" d="M853.41,52.59l-.43.7H843.5l-1.78-4.6H830.78l-1.88,4.6h-9l-.43-.7,14-29.81h5.91Zm-14-10-3-7.79-3.19,7.79Z"/><path class="cls-2" d="M898.55,38c0,9.2-6.14,15.3-16.14,15.3H868.19V22.78h14.22C892.41,22.78,898.55,28.88,898.55,38Zm-9.48,0c0-5-3-7.74-7-7.74h-4.55V45.78H882C886.12,45.78,889.07,43,889.07,38Z"/><path class="cls-2" d="M934.41,52.59l-.42.7h-9.48l-1.79-4.6H911.79l-1.88,4.6h-9.06l-.42-.7,14-29.81h5.92Zm-14-10-3-7.79-3.19,7.79Z"/><path class="cls-2" d="M561.2,66V96.47h-9.29V66Z"/><path class="cls-2" d="M597.91,66V96.47H591.8l-13.33-15.3v15.3h-9.29V66h6.1l13.33,15.3V66Z"/><path class="cls-2" d="M615.18,73.47V78.4h10.13v7H615.18v11h-9.3V66h22.91v7.51Z"/><path class="cls-2" d="M661.59,95.76l-.42.71h-9.25l-5.77-10.7H644v10.7h-9.3V66h14c8,0,12.34,3.94,12.34,10.18,0,4-2.25,6.76-5.58,8.31ZM644,79.66h4.31a2.94,2.94,0,0,0,3.24-3,3.07,3.07,0,0,0-3.24-3.19H644Z"/><path class="cls-2" d="M698.58,95.76l-.43.71h-9.48l-1.78-4.6H676l-1.87,4.6H665l-.43-.71,14-29.8h5.91Zm-14-10L681.59,78l-3.2,7.8Z"/><path class="cls-2" d="M712.65,73.47v4.22h10.61v7H712.65V89h14.08v7.51H703.36V66h23.23v7.51Z"/><path class="cls-2" d="M731.66,91.82v-.66L736,85.81h.66a13.23,13.23,0,0,0,8,3.48c2.26,0,3.71-.71,3.71-1.88,0-1.64-2.07-1.78-5.12-2.63-4.69-1.31-10.23-3.94-10.23-10,0-5.59,5-9.43,12.25-9.43,5.17,0,9.86,2,12.16,4.55v.66l-4.37,5.16h-.65a10.84,10.84,0,0,0-6.95-3.1c-1.78,0-3,.66-3,1.74,0,1.5,2.12,2.2,4.18,2.81,5.26,1.51,11.22,3.29,11.22,10.19,0,6.34-5.92,9.62-12.72,9.62C739.41,97,734.43,94.87,731.66,91.82Z"/><path class="cls-2" d="M780.05,96.47h-9.29v-23h-9.3V66h27.88v7.51h-9.29Z"/><path class="cls-2" d="M821.77,95.76l-.42.71H812.1l-5.77-10.7h-2.2v10.7h-9.3V66h14c8,0,12.34,3.94,12.34,10.18,0,4-2.25,6.76-5.58,8.31Zm-17.64-16.1h4.31a2.94,2.94,0,0,0,3.24-3,3.07,3.07,0,0,0-3.24-3.19h-4.31Z"/><path class="cls-2" d="M836.79,66V82.67c0,3.66,2.25,6.1,5.59,6.1s5.58-2.44,5.58-6.1V66h9.15V82.11c0,9-5.91,14.92-14.73,14.92s-14.88-6-14.88-14.92V66Z"/><path class="cls-2" d="M880.72,96.47h-9.29v-23h-9.3V66H890v7.51h-9.29Z"/><path class="cls-2" d="M904.33,66V82.67c0,3.66,2.25,6.1,5.58,6.1s5.59-2.44,5.59-6.1V66h9.15V82.11c0,9-5.91,14.92-14.74,14.92S895,91.07,895,82.11V66Z"/><path class="cls-2" d="M959.1,95.76l-.42.71h-9.25l-5.77-10.7h-2.21v10.7h-9.29V66h14c8,0,12.35,3.94,12.35,10.18,0,4-2.25,6.76-5.59,8.31Zm-17.65-16.1h4.32a2.94,2.94,0,0,0,3.24-3,3.07,3.07,0,0,0-3.24-3.19h-4.32Z"/><path class="cls-2" d="M996.08,95.76l-.42.71h-9.48l-1.79-4.6H973.46l-1.88,4.6h-9.06l-.42-.71,14-29.8h5.92Zm-14-10-3-7.8-3.19,7.8Z"/><path class="cls-2" d="M564.21,115.48a5.84,5.84,0,0,1-6.08,5.87,6,6,0,1,1,0-12,6.19,6.19,0,0,1,4.89,2.23v.2l-1.73,1.46h-.2a3.8,3.8,0,0,0-2.94-1.37,3.5,3.5,0,0,0,0,7,3.17,3.17,0,0,0,3.23-2.34h-3.26v-2H564l.2.18A8.4,8.4,0,0,1,564.21,115.48Z"/><path class="cls-2" d="M565.94,115.34a6.36,6.36,0,1,1,6.35,6A6,6,0,0,1,565.94,115.34Zm9.86,0a3.52,3.52,0,1,0-3.51,3.5A3.41,3.41,0,0,0,575.8,115.34Z"/><path class="cls-2" d="M592.35,109.72l-5,11.42h-2.26l-3.62-8.28c-.29-.66-.47-.91-.7-1a.77.77,0,0,0-.57.05l-.18-.08-.48-1.9.07-.19a2.42,2.42,0,0,1,1.5-.43,2.76,2.76,0,0,1,2.73,2.07l2.42,5.94,3.23-7.8h2.77Z"/><path class="cls-2" d="M597.29,111.83v2.41h4.34v2.17h-4.34v2.45H603v2.28h-8.44v-11.6H603v2.29Z"/><path class="cls-2" d="M615.91,120.73l-.09.2a2.81,2.81,0,0,1-1.57.42c-1.69,0-2.37-1-3.12-2.46-.37-.73-1-2.1-1.75-2.1h-.91v4.35h-2.78v-11.6h5c2.94,0,4.49,1.41,4.49,3.7a3.29,3.29,0,0,1-2.4,3.24,3.78,3.78,0,0,1,.67,1c.34.73.66,1.39,1.27,1.39a1.19,1.19,0,0,0,.46-.12l.18.09Zm-5.15-5.85a1.48,1.48,0,0,0,1.64-1.5,1.51,1.51,0,0,0-1.64-1.55h-2.29v3Z"/><path class="cls-2" d="M628.68,109.54v11.6h-2l-5.55-6.92v6.92h-2.78v-11.6h2l5.57,6.94v-6.94Z"/><path class="cls-2" d="M631.3,115.34a6.36,6.36,0,1,1,6.35,6A6,6,0,0,1,631.3,115.34Zm9.87,0a3.52,3.52,0,1,0-3.52,3.5A3.42,3.42,0,0,0,641.17,115.34Z"/><path class="cls-2" d="M662.44,115.32c0,3.5-2.37,5.82-6.1,5.82h-5.08v-11.6h5.08C660.07,109.54,662.44,111.86,662.44,115.32Zm-2.85,0a3.21,3.21,0,0,0-3.36-3.51H654v7h2.19A3.22,3.22,0,0,0,659.59,115.34Z"/><path class="cls-2" d="M664.38,115.34a6.36,6.36,0,1,1,6.35,6A6,6,0,0,1,664.38,115.34Zm9.87,0a3.52,3.52,0,1,0-3.52,3.5A3.41,3.41,0,0,0,674.25,115.34Z"/><path class="cls-2" d="M687.12,111.83v2.41h4.34v2.17h-4.34v2.45h5.66v2.28h-8.44v-11.6h8.44v2.29Z"/><path class="cls-2" d="M694.74,119.36v-.25l1.28-1.54h.2A4.36,4.36,0,0,0,699.3,119c1,0,1.7-.47,1.7-1.14,0-.84-1.07-1.11-2.36-1.56-1.57-.53-3.49-1.3-3.49-3.53s1.94-3.44,4.33-3.44a5.2,5.2,0,0,1,4.12,1.73v.27l-1.28,1.44h-.23a3.48,3.48,0,0,0-2.55-1.19c-.88,0-1.52.37-1.52,1s.82,1,1.73,1.39c1.89.66,4.1,1.38,4.1,3.84s-2,3.51-4.47,3.51A5.82,5.82,0,0,1,694.74,119.36Z"/><path class="cls-2" d="M711.61,111.83v9.31h-2.78v-9.31h-3.61v-2.29h10v2.29Z"/><path class="cls-2" d="M727.84,120.78l-.11.2a3,3,0,0,1-1.51.37,2.43,2.43,0,0,1-1.55-.48,4.78,4.78,0,0,1-1.22-1.76h-4.83l-.8,2h-2.93l5-11.6h2.41l3.71,8.32c.35.8.59,1,.91,1a.81.81,0,0,0,.39-.12l.16.09Zm-8.45-3.6h3.3L721.05,113Z"/><path class="cls-2" d="M741.07,115.32c0,3.5-2.37,5.82-6.1,5.82h-5.08v-11.6H735C738.7,109.54,741.07,111.86,741.07,115.32Zm-2.85,0a3.21,3.21,0,0,0-3.35-3.51h-2.2v7h2.2A3.21,3.21,0,0,0,738.22,115.34Z"/><path class="cls-2" d="M743,115.34a6.35,6.35,0,1,1,6.35,6A6,6,0,0,1,743,115.34Zm9.86,0a3.52,3.52,0,1,0-3.51,3.5A3.41,3.41,0,0,0,752.88,115.34Z"/><path class="cls-2" d="M774.16,115.32c0,3.5-2.38,5.82-6.1,5.82H763v-11.6h5.09C771.78,109.54,774.16,111.86,774.16,115.32Zm-2.86,0a3.21,3.21,0,0,0-3.35-3.51h-2.19v7H768A3.21,3.21,0,0,0,771.3,115.34Z"/><path class="cls-2" d="M776.1,115.34a6.36,6.36,0,1,1,6.35,6A6,6,0,0,1,776.1,115.34Zm9.86,0a3.52,3.52,0,1,0-3.51,3.5A3.41,3.41,0,0,0,786,115.34Z"/><path class="cls-2" d="M798.21,115.34a3.39,3.39,0,0,0,3.45,3.5,3.81,3.81,0,0,0,2.94-1.38h.2l1.71,1.43v.2a6.19,6.19,0,0,1-4.89,2.26,6,6,0,1,1,0-12,6.19,6.19,0,0,1,4.85,2.27v.19l-1.71,1.43h-.2a3.8,3.8,0,0,0-2.94-1.37A3.39,3.39,0,0,0,798.21,115.34Z"/><path class="cls-2" d="M811.71,111.83v2.41h4.34v2.17h-4.34v2.45h5.66v2.28h-8.44v-11.6h8.44v2.29Z"/><path class="cls-2" d="M831.81,120.78l-.1.2a3,3,0,0,1-1.52.37,2.45,2.45,0,0,1-1.55-.48,4.66,4.66,0,0,1-1.21-1.76h-4.84l-.8,2h-2.92l5-11.6h2.41l3.71,8.32c.36.8.59,1,.91,1a.81.81,0,0,0,.39-.12l.16.09Zm-8.45-3.6h3.3L825,113Z"/><path class="cls-2" d="M844.08,120.73l-.09.2a2.79,2.79,0,0,1-1.56.42c-1.7,0-2.38-1-3.13-2.46-.37-.73-1-2.1-1.75-2.1h-.9v4.35h-2.79v-11.6h5c2.94,0,4.5,1.41,4.5,3.7a3.3,3.3,0,0,1-2.41,3.24,4,4,0,0,1,.68,1c.34.73.66,1.39,1.26,1.39a1.3,1.3,0,0,0,.47-.12l.17.09Zm-5.15-5.85a1.48,1.48,0,0,0,1.64-1.5,1.51,1.51,0,0,0-1.64-1.55h-2.28v3Z"/><path class="cls-2" d="M858.21,120.78l-.11.2a3,3,0,0,1-1.51.37,2.46,2.46,0,0,1-1.56-.48,4.89,4.89,0,0,1-1.21-1.76H849l-.81,2h-2.92l5-11.6h2.41l3.71,8.32c.35.8.59,1,.91,1a.89.89,0,0,0,.39-.12l.16.09Zm-8-12.27-.61-1v-.2l3.82-2.39h.2l1,1.68v.19l-4.25,1.75Zm-.47,8.67h3.3L851.41,113Z"/><path class="cls-2" d="M519.63,59.77c.62-5.56,4.56-9.38,9.11-12.28l.81-.51-15.2-19.3-.32-.06c-1.82-.35-3.64-.66-5.46-.95-5.54-.75-9.46-1.25-12.9-1.59l-2.82-.22h-.09l-.85-.06h-.23l-.22,0c-2.1-.13-4.19-.24-6.29-.31h0l-.75,0h0l-.63,0c-7.68-.16-14.48.1-19.31.39h0c-1.68.11-12.5,1.19-14.52,1.43l-.33,0c-2.46.34-7.51,1.12-9.35,1.41L425.06,47l.81.51c4.55,2.9,8.48,6.72,9.11,12.28s-2.33,11.8-4.39,16.76c-2.77,6.66-5.35,13.24-5.35,20.56a15.43,15.43,0,0,0,.71,4.63c1.51,4.87,5.26,8.79,9.22,11.9A100.6,100.6,0,0,0,450.32,123c5.4,2.86,11,5.56,16.19,8.74,3.48,2.11,8.1,5.24,10,8.89l.78,1.49.78-1.49c1.92-3.65,6.54-6.78,10-8.89,5.21-3.18,10.8-5.88,16.19-8.74a100.7,100.7,0,0,0,15.16-9.37c3.95-3.11,7.71-7,9.22-11.9a15.43,15.43,0,0,0,.71-4.63c0-7.32-2.58-13.9-5.35-20.56C522,71.57,519,65.22,519.63,59.77Z"/><polygon class="cls-3" points="495.9 5.68 498.96 6.15 498.99 4.29 495.9 5.68"/><polygon class="cls-3" points="468.5 3.21 468.47 5.01 470.25 4.89 468.5 3.21"/><polygon class="cls-3" points="484.32 4.87 486.1 4.98 486.07 3.19 484.32 4.87"/><g class="cls-4"><rect class="cls-5" x="445.79" width="63.66" height="12.43"/></g><g class="cls-6"><rect class="cls-7" x="448.55" y="8.06" width="57.24" height="5.22"/></g><g class="cls-8"><rect class="cls-9" x="447.37" y="10.89" width="60.24" height="16.82"/></g><path class="cls-3" d="M481.3,24.79l-8.84.11a31.28,31.28,0,0,1,.57-5,6,6,0,0,1,2.19-3.17,3.74,3.74,0,0,1,3.2-.49,4.34,4.34,0,0,1,2.47,2.13A9.73,9.73,0,0,1,482.05,22a10.79,10.79,0,0,1,0,2.84Z"/><path class="cls-3" d="M490.49,13.87c-1.41.09-2.68,1-2.58,2.12s.77,6.49.77,6.49l5.68.41-1-7.33S491.9,13.79,490.49,13.87Z"/><g class="cls-11"><g class="cls-12"><rect class="cls-13" x="426.95" y="27.15" width="101.57" height="110.81"/></g></g><path class="cls-1" d="M442.84,32.26,432,45.8c4.11,3.42,7.17,7.72,7.8,13.32.75,6.65-2.19,13.33-4.69,19.36s-5,12.13-5,18.68a10.48,10.48,0,0,0,.48,3.13c2.47,8,14.95,14.59,21.93,18.29,5.51,2.92,11.2,5.68,16.53,8.93a46.61,46.61,0,0,1,8.05,5.94,46.17,46.17,0,0,1,8-5.94c5.33-3.25,11-6,16.53-8.93,7.46-4,22.41-11.63,22.41-21.42,0-6.55-2.5-12.71-5-18.68s-5.45-12.71-4.7-19.36c.63-5.6,3.77-9.75,7.89-13.17L511.4,32.22a185.5,185.5,0,0,0-33.12-2.9,222.21,222.21,0,0,0-35.44,2.94"/><polygon class="cls-14" points="444.83 50.48 443.94 53.34 441.05 53.33 443.39 55.09 442.49 57.95 444.83 56.18 447.18 57.95 446.27 55.09 448.62 53.33 445.72 53.34 444.83 50.48"/><polygon class="cls-15" points="444.83 50.48 443.94 53.34 441.05 53.33 443.39 55.09 442.49 57.95 444.83 56.18 447.18 57.95 446.27 55.09 448.62 53.33 445.72 53.34 444.83 50.48"/><polygon class="cls-14" points="442.4 69.91 441.51 72.76 438.61 72.76 440.96 74.52 440.06 77.37 442.4 75.6 444.74 77.37 443.83 74.52 446.18 72.76 443.29 72.76 442.4 69.91"/><polygon class="cls-15" points="442.4 69.91 441.51 72.76 438.61 72.76 440.96 74.52 440.06 77.37 442.4 75.6 444.74 77.37 443.83 74.52 446.18 72.76 443.29 72.76 442.4 69.91"/><polygon class="cls-14" points="439.24 87.31 438.35 90.17 435.45 90.16 437.8 91.92 436.9 94.78 439.24 93.01 441.58 94.78 440.68 91.92 443.03 90.16 440.13 90.17 439.24 87.31"/><polygon class="cls-15" points="439.24 87.31 438.35 90.17 435.45 90.16 437.8 91.92 436.9 94.78 439.24 93.01 441.58 94.78 440.68 91.92 443.03 90.16 440.13 90.17 439.24 87.31"/><polygon class="cls-14" points="476.94 117.59 476.06 120.45 473.16 120.45 475.5 122.21 474.61 125.06 476.94 123.29 479.29 125.06 478.38 122.21 480.73 120.45 477.84 120.45 476.94 117.59"/><polygon class="cls-15" points="476.94 117.59 476.06 120.45 473.16 120.45 475.5 122.21 474.61 125.06 476.94 123.29 479.29 125.06 478.38 122.21 480.73 120.45 477.84 120.45 476.94 117.59"/><polygon class="cls-14" points="494.42 110.53 493.52 113.39 490.63 113.39 492.97 115.15 492.07 118 494.42 116.23 496.75 118 495.85 115.15 498.2 113.39 495.31 113.39 494.42 110.53"/><polygon class="cls-15" points="494.42 110.53 493.52 113.39 490.63 113.39 492.97 115.15 492.07 118 494.42 116.23 496.75 118 495.85 115.15 498.2 113.39 495.31 113.39 494.42 110.53"/><polygon class="cls-14" points="459.31 110.53 460.2 113.39 463.1 113.39 460.75 115.15 461.65 118 459.31 116.23 456.97 118 457.87 115.15 455.52 113.39 458.42 113.39 459.31 110.53"/><polygon class="cls-15" points="459.31 110.53 460.2 113.39 463.1 113.39 460.75 115.15 461.65 118 459.31 116.23 456.97 118 457.87 115.15 455.52 113.39 458.42 113.39 459.31 110.53"/><polygon class="cls-14" points="445.42 101.25 446.31 104.11 449.21 104.11 446.86 105.87 447.76 108.72 445.42 106.95 443.08 108.72 443.98 105.87 441.63 104.11 444.53 104.11 445.42 101.25"/><polygon class="cls-15" points="445.42 101.25 446.31 104.11 449.21 104.11 446.86 105.87 447.76 108.72 445.42 106.95 443.08 108.72 443.98 105.87 441.63 104.11 444.53 104.11 445.42 101.25"/><g class="cls-16"><rect class="cls-17" x="423.93" y="39.08" width="87.53" height="64.59"/></g><path class="cls-18" d="M448.72,75h16v.68h-16v-.16h0V75"/><path class="cls-19" d="M448.72,75h16v.68h-16v-.16h0Z"/><path class="cls-18" d="M448.86,71.94l15.91,3.12-.13.66-15.83-3.1c0-.22,0-.45.05-.68"/><path class="cls-19" d="M448.86,71.94l15.91,3.12-.13.66-15.83-3.1C448.83,72.4,448.84,72.17,448.86,71.94Z"/><path class="cls-18" d="M449.21,68.72l15.64,6.37-.27.62-15.46-6.3c0-.23.06-.46.09-.69"/><path class="cls-19" d="M449.21,68.72l15.64,6.37-.27.62-15.46-6.3C449.14,69.18,449.18,69,449.21,68.72Z"/><path class="cls-18" d="M449.84,65.24l15.07,9.89-.38.57L449.69,66l.15-.71"/><path class="cls-19" d="M449.84,65.24l15.07,9.89-.38.57L449.69,66Z"/><path class="cls-18" d="M450.88,61.36,465,75.19l-.48.48L450.66,62.09l.22-.73"/><path class="cls-19" d="M450.88,61.36,465,75.19l-.48.48L450.66,62.09Z"/><path class="cls-18" d="M452.56,57,465,75.26l-.57.37-12.19-17.9c.1-.25.21-.5.32-.74"/><path class="cls-19" d="M452.56,57,465,75.26l-.57.37-12.19-17.9C452.34,57.48,452.45,57.23,452.56,57Z"/><path class="cls-18" d="M455.22,52.16,465,75.33l-.63.26-9.63-22.73.45-.7"/><path class="cls-19" d="M455.22,52.16,465,75.33l-.63.26-9.63-22.73Z"/><path class="cls-18" d="M459.27,47.25,465,75.41l-.67.13-5.69-27.7.59-.59"/><path class="cls-19" d="M459.27,47.25,465,75.41l-.67.13-5.69-27.7Z"/><path class="cls-18" d="M464.91,43.12,465,75.48h-.69l-.12-32,.68-.38"/><path class="cls-19" d="M464.91,43.12,465,75.48h-.69l-.12-32Z"/><path class="cls-18" d="M471.9,40.66,465,75.56l-.67-.13,6.82-34.62.73-.15"/><path class="cls-19" d="M471.9,40.66,465,75.56l-.67-.13,6.82-34.62Z"/><path class="cls-18" d="M479.64,40.29,465,75.63l-.64-.26,14.56-35.14c.24,0,.49,0,.73.06"/><path class="cls-19" d="M479.64,40.29,465,75.63l-.64-.26,14.56-35.14C479.15,40.25,479.4,40.26,479.64,40.29Z"/><path class="cls-18" d="M487.39,42.19,465,75.69l-.58-.37,22.37-33.4.65.27"/><path class="cls-19" d="M487.39,42.19,465,75.69l-.58-.37,22.37-33.4Z"/><path class="cls-18" d="M494.18,46.52,464.89,75.75l-.49-.48,29.27-29.2.51.45"/><path class="cls-19" d="M494.18,46.52,464.89,75.75l-.49-.48,29.27-29.2Z"/><path class="cls-18" d="M499.37,52.71,464.82,75.79l-.38-.56L499,52.14l.36.57"/><path class="cls-19" d="M499.37,52.71,464.82,75.79l-.38-.56L499,52.14Z"/><path class="cls-18" d="M502.88,59.94,464.75,75.81l-.27-.62L502.64,59.3l.24.64"/><path class="cls-19" d="M502.88,59.94,464.75,75.81l-.27-.62L502.64,59.3Z"/><path class="cls-18" d="M504.87,67.64l-40.2,8.19-.14-.67L504.75,67l.12.66"/><path class="cls-19" d="M504.87,67.64l-40.2,8.19-.14-.67L504.75,67Z"/><path class="cls-18" d="M505.53,75.51l-40.94.31v-.67l40.93-.31c0,.22,0,.45,0,.67"/><path class="cls-19" d="M505.53,75.51l-40.94.31v-.67l40.93-.31C505.52,75.06,505.53,75.29,505.53,75.51Z"/><path class="cls-18" d="M464.7,65.19A10.4,10.4,0,0,1,475.18,75.5h-21A10.41,10.41,0,0,1,464.7,65.19"/><path class="cls-20" d="M464.7,66.08a9.42,9.42,0,0,1,9.62,9.19H455.07a9.42,9.42,0,0,1,9.63-9.19"/><g class="cls-21"><g class="cls-22"><rect class="cls-23" x="446.5" y="74.03" width="55.51" height="46.21"/></g></g><g class="cls-24"><g class="cls-25"><rect class="cls-26" x="447.78" y="74.96" width="37.36" height="36.22"/></g><path class="cls-1" d="M476.49,111.28h0a25.87,25.87,0,0,1-21.15-11.49c-4.51-6.44-7-15-7-24.22a.37.37,0,0,1,.37-.36h27.33a.36.36,0,0,1,.36.3.35.35,0,0,1-.25.39c-3.49,1.07-5.58,2.53-6.38,4.45-1.34,3.18,1,7.47,3.43,12,3.19,5.88,6.79,12.55,3.61,18.73A.37.37,0,0,1,476.49,111.28ZM449.08,75.92c.1,16.33,8.61,34,27.19,34.65,2.83-5.8-.63-12.22-3.7-17.88C470,88,467.64,83.57,469.1,80.08c.73-1.73,2.34-3.1,4.9-4.16H449.08Z"/></g><g class="cls-28"><rect class="cls-29" x="476.11" y="58.08" width="30.47" height="17.36"/></g><path class="cls-14" d="M460.45,95.8c-3.77-7.67-1.84-12.43,3.41-15.35-2.39,4.22,1.1,7.78,6.14,11.72a25.35,25.35,0,0,0-9.42,3.56Z"/><g class="cls-30"><g class="cls-31"><rect class="cls-32" x="472.3" y="74.96" width="33.84" height="29.28"/></g></g><g class="cls-33"><rect class="cls-34" x="489.98" y="67.81" width="18.89" height="7.78"/></g><rect class="cls-35" x="462.66" y="56.42" width="3.81" height="1.99"/><rect class="cls-36" x="462.66" y="56.42" width="3.81" height="1.99"/><path class="cls-14" d="M478.37,52.1a20,20,0,0,1,7.27.87c1.8.65,2.49.62,4.15,2.18l-2.52,1.58c-2.54-2.81-5.71-3.3-9-4.24-1.37-.4-1.32-.36.07-.39"/><path class="cls-14" d="M488.67,55.13c2,.14,4.37-1.39,5.35-1.58.32-.06.94.53.65.81a17.58,17.58,0,0,1-1.61.75,12.08,12.08,0,0,1,1.79-.78c.5.08.8.88.58,1.05a21.31,21.31,0,0,0-2,.64,9.67,9.67,0,0,1,2-.64c.27,0,.57.81.19,1-1.11.71-2.57.74-3.75,1.26.45,1.76,1.61,3.77,1.55,5.59-.09,2.83-1.66,5.49-2.14,8.15-.19,1,0,1.3-.27.1-.62-3.47-.86-9.62-2.48-11.89a8.9,8.9,0,0,0-2-1.07,8,8,0,0,0-1.9-.24c-.44.12-1.52.35-2,.48.15-.83.8-3.16,2.37-3Z"/><path class="cls-42" d="M489.42,85.4l-.05.91,1.21.89,0-1-1.09-.81Zm-.55,16.19,0,.91.11.07h1.24Zm.07-1.81,0,.93,2.14,1.58,0-1ZM489,98l-.05.94,2.05,1.49,0-1Zm.06-1.81-.05.93,1.93,1.45v-1Zm.06-1.81-.05,1,1.82,1.32,0-1Zm.06-1.81-.05,1,1.69,1.26,0-1Zm.06-1.8-.05,1,1.56,1.14,0-1Zm.06-1.81-.05,1L490.69,91l0-1Zm.07-1.81-.07,1,1.35,1,0-1Z"/><path class="cls-43" d="M488.77,101.7l0,.9.1.08h1.25Zm.06-1.81,0,.9,2.13,1.59,0-.94Zm.07-1.81,0,.9,2,1.51,0-.95Z"/><polygon class="cls-44" points="468.91 75.04 460.5 75.04 460.5 62.42 468.89 62.42 468.91 75.04"/><path class="cls-45" d="M466.31,62.22l-3.58,0,.11-1.83-.18-.23,0-5.17a6,6,0,0,0,.8-.84c.4-.49.66-1.13,1.17-1.13.74,0,.53.59.86,1.07a13,13,0,0,0,1.25,1.4l.08,2.94.08,1.79-.75.16Z"/><rect class="cls-35" x="462.88" y="56.52" width="3.42" height="1.59"/><path class="cls-3" d="M463.63,13.85c1.41.08,2.68,1,2.58,2.11s-.78,6.49-.78,6.49l-5.68.41,1-7.33S462.22,13.76,463.63,13.85Z"/><path class="cls-46" d="M462.18,16.21c-.18,1.95-.43,3.29-.61,5.24,1-.09,1.71-.09,2.48-.16.25-1.92.44-3.35.68-5.27C464.24,14.9,463,15.05,462.18,16.21Z"/><path class="cls-46" d="M492.54,21.45c-.17-1.95-.43-3.29-.61-5.24-.77-1.16-2.05-1.31-2.55-.19.24,1.92.44,3.35.68,5.27C490.83,21.36,491.54,21.36,492.54,21.45Z"/><path class="cls-46" d="M480.84,24.62l0-.71h0c-.21-2.5-.39-6.48-3.52-6.48S474,21.55,473.85,24h0l0,.6Z"/><path class="cls-46" d="M477.29,16.45c4.07,0,4.17,4.87,4.49,7.9a.9.9,0,0,1,0,.16l0,.09h.78l0-.23h0c-.08-.82-.15-1.71-.28-2.6l1.87,0,.25,2.6h0l.05.19h.72v-.17h0l-.25-2.6,3.36.13.14,1,1.5.15c.83.08,1.67.09,2.51.16l2.24.18-.11-1.14c1.44.1,2.89.23,4.33.37l.7,2.74.09.42.73,0-.12-.69-.61-2.41,5.26.63L506.05,26h0l.11.24h0l.08.21.9.12v-.18h0l-5.73-13.06,2,.32,2.13-1.8,1.52-3.24c.27-.52.11-3,.11-3.77-1.18-.23-7.73-1.55-8.24-1.48l-4.65,2.08V2.8l-8.23-.66v0l-2.83,2.65-1.82,0V2l-8.23,0V4.79l-1.78.06-2.86-2.68-8.23.66V5.49l-4.65-2.06c-.54-.07-7,1.22-8.23,1.45a17.68,17.68,0,0,0,.1,3.76c1.91,3.91.52,2.48,3.92,5l1.58-.24-5.61,13.16c0,.1,0,.07,0,.07l0,.18.84-.12.11-.18h0l1.3-3h0l5.25-.62-.71,2.82,0,.1,0,.55h.68l.34-1.33.57-2.22c1.29-.13,2.59-.24,3.89-.35l-.09,1,2.23-.18c.84-.07,1.68-.08,2.51-.16l1.51-.15.12-1,3.8-.15-.19,2-.08,1h.73l0-.33v-.08h0l.26-2.64,1.92-.05.12-.74-6.51.27c.11-.88.23-1.76.34-2.64l7-.31A18.62,18.62,0,0,0,472.09,24h0l-.07.71h.76l0-.37h0C473.12,21.4,473.32,16.45,477.29,16.45Zm10.93-2q-5.25-.3-10.5-.32V11.52c4,0,8,.19,12,.51l.24,1.4-.29.07A2.88,2.88,0,0,0,488.22,14.4Zm-.71,1.85c.07.52.13,1.05.2,1.57l-3.18-.13-.23-2.75c1.14,0,2.29.09,3.44.16l-.09.18-.2.47Zm5,6.12c-.84-.06-1.67-.08-2.5-.16l-.75-.07-.1-.74c-.22-1.76-.45-3.51-.67-5.26l0-.25.11-.24a2.15,2.15,0,0,1,1.4-1.26,2.71,2.71,0,0,1,2.8,1.31l.13.2,0,.23c.16,1.75.45,3.48.61,5.23l.1,1.1Zm1.34-6.32,0-.47,0,0c1.12.11,2.24.22,3.36.35l.69,2.7c-1.24-.13-2.48-.25-3.73-.35C494,17.51,493.88,16.78,493.81,16.05Zm10.74,6.58h-.13c-3.31-.44-6.63-.77-10-1l0-.31c-.07-.77-.16-1.53-.26-2.3,3.09.26,6.18.6,9.25,1Zm-1.49-3.4-.14,0-4.34-.54L497.9,16l4,.52Zm-1.55-3.52-.13,0-8.14-.87a3.84,3.84,0,0,0-2.52-1.41l-.22-1.32q5,.44,9.92,1.14ZM499,4.37l0,1.73c-1-.13-2-.26-2.93-.44Zm-12.92-1.1V4.92l-1.67-.07Zm-17.52,0,1.7,1.61-1.7.07ZM455.65,4.43l3,1.33-3,.38Zm-6.28,5.84c-1.34-2.55-1.06-1.62-1.06-4.66,2.15-.42,4.29-.8,6.44-1.14V7.16c2.15-.3,4.29-.56,6.44-.79V3.63c2.15-.21,4.29-.38,6.44-.52V5.88c2.15-.1,4.29-.18,6.44-.22V2.88c2.15,0,4.29,0,6.44,0V5.64c2.14,0,4.29.1,6.44.2V3.08q3.21.21,6.44.52V6.32c2.14.23,4.28.5,6.44.8V4.44Q503,5,506.27,5.61c0,3.12.29,2-1.1,4.71A181.92,181.92,0,0,0,476.44,8a176.3,176.3,0,0,0-27.05,2.26Zm2.3,2.43-2.14-1.57a169,169,0,0,1,55.47.06l-1.83,1.56-9.41-1.24A159.62,159.62,0,0,0,451.67,12.7Zm2.3.55c3.36-.48,6.73-.87,10.1-1.15l-.22,1.3a3.68,3.68,0,0,0-3,1.5l-7.9.83Zm-1.39,3.27h0l4-.51-.7,2.76-4.56.55Zm7.11,4.76,0,.42c-3.24.25-6.49.59-9.71,1l1.11-2.61h0c2.94-.4,5.89-.72,8.85-1C459.84,19.83,459.76,20.55,459.69,21.28Zm.61-5.23c-.07.77-.17,1.54-.27,2.31-1.1.09-2.19.2-3.29.31l.7-2.76,2.9-.29Zm5.37.09c-.22,1.75-.46,3.5-.68,5.26l-.09.74-.76.07c-.83.08-1.66.1-2.49.16l-1.12.09.1-1.1c.16-1.75.45-3.48.61-5.23l0-.23.13-.2a2.71,2.71,0,0,1,2.8-1.31,2.19,2.19,0,0,1,1.41,1.26l.1.24Zm.27-1.7a3,3,0,0,0-1.35-.9l.25-1.51c4-.32,8.08-.5,12.13-.51v2.56C473.29,14.11,469.61,14.22,465.94,14.44Zm4.08,3.3c-1.21,0-2.42.1-3.63.17l.21-1.66.07-.5-.21-.47-.06-.13c1.28-.07,2.57-.14,3.85-.19Zm.75,0,.23-2.78c4.18-.14,8.37-.16,12.55,0l.23,2.76L481,17.61a4.88,4.88,0,0,1,.42.74l6.44.26c.12.89.23,1.77.35,2.65l-6-.23.05.32c-.46-2.87-1.53-5.63-4.91-5.63a4,4,0,0,0-3.62,1.92Z"/><rect class="cls-47" x="463.8" y="66.92" width="2" height="1.93"/><path class="cls-47" d="M468.53,96.91a.64.64,0,0,0,0-1.07h-1.62v-1a.38.38,0,0,0-.38-.37h-.9a.38.38,0,0,0-.38.37v.89l0,.09h-3.7a25.73,25.73,0,0,1,8.32-3l1.56-.32-1.25-1c-2.22-1.73-6.21-4.8-6.52-7.8a4.66,4.66,0,0,1,.66-2.77l1.3-2.29L463.34,80c-6.56,3.65-6.62,9.67-3.61,15.84h-1v-.56h-1.27v.56h-1.42c-.37.29-.37.64,0,1.07A39.31,39.31,0,0,0,468.53,96.91ZM463.7,80.64c-2.38,4.21,1,7.58,6,11.51a24.59,24.59,0,0,0-9.26,3.53C456.91,88.49,458.47,83.55,463.7,80.64Z"/><path class="cls-47" d="M485.08,56.66a.36.36,0,0,0-.37.33.37.37,0,0,0,.32.39.36.36,0,0,0,.37-.33A.37.37,0,0,0,485.08,56.66Z"/><path class="cls-47" d="M519.63,59.77c.62-5.56,4.56-9.38,9.11-12.28l.81-.51-15.2-19.3-.32-.06c-1.82-.35-3.64-.66-5.46-.95-5.54-.75-9.46-1.25-12.9-1.59l-2.82-.22h-.09l-.85-.06h-.23l-.22,0c-2.1-.13-4.19-.24-6.29-.31h0l-.75,0h0l-.63,0c-7.68-.16-14.48.1-19.31.39h0c-1.68.11-12.5,1.19-14.52,1.43l-.33,0c-2.46.34-7.51,1.12-9.35,1.41L425.06,47l.81.51c4.55,2.9,8.48,6.72,9.11,12.28s-2.33,11.8-4.39,16.76c-2.77,6.66-5.35,13.24-5.35,20.56a15.43,15.43,0,0,0,.71,4.63c1.51,4.87,5.26,8.79,9.22,11.9A100.6,100.6,0,0,0,450.32,123c5.4,2.86,11,5.56,16.19,8.74,3.48,2.11,8.1,5.24,10,8.89l.78,1.49.78-1.49c1.92-3.65,6.54-6.78,10-8.89,5.21-3.18,10.8-5.88,16.19-8.74a100.7,100.7,0,0,0,15.16-9.37c3.95-3.11,7.71-7,9.22-11.9a15.43,15.43,0,0,0,.71-4.63c0-7.32-2.58-13.9-5.35-20.56C522,71.57,519,65.22,519.63,59.77ZM477.3,140.23c-7.31-14-51.18-22.18-51.18-43.14s22.16-36.35.22-50.33l14.4-18.3q38.75-6.51,73.12,0l14.4,18.3c-21.93,14,.23,29.38.23,50.33S484.62,126.26,477.3,140.23Z"/><polygon class="cls-3" points="455.62 6.18 458.82 5.77 455.62 4.38 455.62 6.18"/><path class="cls-47" d="M519.94,78.14c-2.43-5.84-5.34-12.42-4.62-18.87.59-5.25,3.45-9.35,7.47-12.69l.65-.54L511.9,31.59l-.33-.06c-22.72-4.1-45.85-3.63-68.59,0l-.34.06L431.13,46l.64.54c4,3.34,6.88,7.44,7.47,12.69.73,6.45-2.19,13-4.61,18.87-2.52,6.07-5,12.28-5,18.93a11.28,11.28,0,0,0,.51,3.37c2.56,8.24,15,14.86,22.27,18.73,5.49,2.91,11.1,5.64,16.41,8.87a45.78,45.78,0,0,1,7.87,5.8l.61.59.62-.59a45.32,45.32,0,0,1,7.86-5.8c5.31-3.23,10.92-6,16.42-8.87C510.09,115,525,107.28,525,97.07,525,90.42,522.46,84.21,519.94,78.14Zm-18.18,40.27c-5.49,2.91-11.16,5.67-16.46,8.9a46.35,46.35,0,0,0-8,5.91,46.67,46.67,0,0,0-8-5.91c-5.31-3.23-11-6-16.47-8.9-6.94-3.68-19.38-10.28-21.84-18.22a10.36,10.36,0,0,1-.48-3.12c0-6.52,2.49-12.66,5-18.6s5.42-12.67,4.67-19.29c-.62-5.58-3.67-9.86-7.77-13.26l6.14-7.7,15.1,14.89c-9.57,16.12-7.29,42,7.12,53.24a26.32,26.32,0,0,0,16.58,5.53c10.46,0,18.13-5.14,23-12.68l12.79,12.62A116.45,116.45,0,0,1,501.76,118.41Zm-21.9-78a1.88,1.88,0,0,1,.31,0,25.79,25.79,0,0,1,6,1.33h0l.58.21.1,0h0l.64.27h0l.14.07.18.07.15.07a24.77,24.77,0,0,1,5.22,3.2l0,0c.25.2.63.51,1,.88h0l.32.29.09.09A28.71,28.71,0,0,1,499,52.08h0l0,.05.06.09h0l.37.56h0l-.15-.24.15.24h0l0,0,.05.07h0a35.76,35.76,0,0,1,2.84,5.59h-.22A6.89,6.89,0,0,0,496,62.13c0,.07-.37.65-.6,1a19.74,19.74,0,0,1-1.62,2.55,10.36,10.36,0,0,0,.28-1.39c0-.21.06-.42.07-.64h0c0-.27,0-.76,0-.76-.05-1.68-.88-3.2-1.38-4.79A12.16,12.16,0,0,0,496,57a1.4,1.4,0,0,0,.23-1.94,3.27,3.27,0,0,0-.12-.5,2.59,2.59,0,0,0-.24-.39,1.65,1.65,0,0,0-.5-.45,1.45,1.45,0,0,0-1.5-.88,7,7,0,0,0-1.54.61,19.71,19.71,0,0,1-1.83.78l-.57.17a15.72,15.72,0,0,0-2.16-1.31h0c-.24-.12-.5-.24-.93-.42l-.68-.26a17.46,17.46,0,0,0-4.77-1h0c-.54,0-1.06-.05-1.81-.07h-.87c-.58,0-1.68-.14-1.79.69s1,1,1.52,1.13l.07,0,1.59.44h0a19.41,19.41,0,0,1,4.48,1.62,2.45,2.45,0,0,0-1.79,1.55l-.16.37a8.94,8.94,0,0,0-.4,1.42h0l-.16.92,1.13-.31c.47-.13,1-.19,1.52-.31a5.93,5.93,0,0,1,1.53.3h0a11.37,11.37,0,0,1,1.14.47l.09,0a1.82,1.82,0,0,1,.76.49h0a.16.16,0,0,0,0,.07v0a14.19,14.19,0,0,1,1.12,4.38h0v.11h0c0,.17,0,.43.09.7h0c0,.27.06.53.09.76l0,.37-1.15-.31-.3-.08h0l-.07,0c-.37-.1-1.12-.29-1.53-.38l-.77-.15A4.81,4.81,0,0,0,482.54,67c-.28.21-.56.44-.83.68a24.82,24.82,0,0,0-1.89,1.93h0c-.09.12-.19.24-.29.35-.47.58-.87,1.12-1.32,1.74-.19.27-.38.55-.56.83h0c-.23.37-.43.71-.57,1-.24.45-.46.9-.64,1.33h-6.89V62.07h-2.68l-.09-1.5h.8V57.75h-.7v-.9h.55v-.92A2.11,2.11,0,0,0,466,54l0-.27a1.3,1.3,0,0,0-.91-1.24,1.57,1.57,0,0,0-.37-.05h-.32a1.31,1.31,0,0,0-1,1.28l0,.29a2.07,2.07,0,0,0-1.36,1.88v.92h.55v.9h-.69v2.82h.85l-.09,1.5H460V74.83H449c0-.18,0-.35,0-.52a3.35,3.35,0,0,1,0-.66c0-.69.06-.87.13-1.71h0l0-.39,0-.31a29.61,29.61,0,0,1,.4-3.29c0-.22.07-.44.11-.64h0c.18-1,.35-1.82.52-2.56.09-.39.17-.7.25-1l0-.1c.1-.38.21-.76.36-1.3s.34-1.14.54-1.71c.14-.4.29-.81.44-1.21l0-.11a18.23,18.23,0,0,1,1-2.48,1.51,1.51,0,0,1,.09-.18A35.07,35.07,0,0,1,455,53v0a20.75,20.75,0,0,1,1.86-2.66c.11-.15.22-.29.34-.43l.08-.12a19.42,19.42,0,0,1,2.37-2.56l.06-.06a25.3,25.3,0,0,1,3.78-3l.08-.06a12.84,12.84,0,0,1,1.57-.91l.41-.21a24.32,24.32,0,0,1,4.54-1.77l.09,0a17.25,17.25,0,0,1,2-.46h0a27.47,27.47,0,0,1,5.15-.47h.32l1.1,0,.36,0h0ZM449,75.56h27a20.42,20.42,0,0,0-2.45.93l-.22.1-.63.33c-.24.13-.46.27-.68.41h0a5.76,5.76,0,0,0-3,5,9.24,9.24,0,0,0,.42,2.72h0l.09.3v0c.11.33.23.68.36,1a34.15,34.15,0,0,0,1.51,3.32c.4.78.81,1.55,1.22,2.33,1.81,3.38,3.81,6.92,4.62,10.7a12.23,12.23,0,0,1-.28,6.73v0a7.22,7.22,0,0,1-.29.72c-.07.18-.16.36-.25.54h0c-.71,0-1.4-.07-2.1-.14a24.89,24.89,0,0,1-10.65-3.59c-10.43-6.5-15-19.81-14.68-31.46v0Zm14.09-11.64V62.79h1.15v1.13h1.15V62.79h1.15v1.13h1.15V62.79h1.15v2.47h-8.06V62.79h1.16v1.13Zm1.69-9.43h0c1.06,0,1.93.65,1.93,1.44v.19h-3.87v-.19C462.82,55.14,463.69,54.49,464.75,54.49Zm-.61-.73a.59.59,0,0,1,.59-.58.58.58,0,0,1,.59.58v.06a2.75,2.75,0,0,0-.57,0,3.05,3.05,0,0,0-.6.06Zm2,3.09v.9h-.94v-.9Zm-1.74,0v.9h-1v-.9Zm2.47,1.63v1.36h-4.17V58.48Zm-.71,3.59h-2.69l.09-1.5H466Zm2.68,4v3.48h-8.06V66Zm0,4.24v4.49h-3V72.31a1.1,1.1,0,1,0-2.16,0v2.45h-2.91V70.27Zm8.45,40.54c2.44-5.16.58-10.36-1.92-15.3-1.44-2.84-3.08-5.59-4.23-8.19-.75-1.7-1.56-3.89-1.25-5.81a5,5,0,0,1,2.22-3.39,16,16,0,0,1,3.09-1.5h0l.11-.05.44-.15c-2.91,5.46-1.82,10.68,2.68,15.38,2.57,2.68,6.22,4.11,10,5.36l-.21,6h3.42v-.6c0-1.47-.07-3-.12-4.42a43.38,43.38,0,0,1,6.4,2.47,25.09,25.09,0,0,1-20.64,10.21h0ZM491.42,87l1.12,1.14.43-.41-1.25-1.28a7.14,7.14,0,0,1,2.35,2l0,.17,0,.2-.26,2.59L492.54,90l-.15-.1-.05-.21A13.68,13.68,0,0,0,491.42,87Zm.41,3.16-.54,1.24c0-1.15-.07-2.29-.1-3.44a20,20,0,0,1,.62,2.09l0,0Zm.68-3.94,1.18.39.19-.56-1.43-.47a7.6,7.6,0,0,1,1.95.34l.13.06.07.13L496,88.57l-1.28-.26h0l0,0A7.72,7.72,0,0,0,492.51,86.2Zm2.27-.85-.08,0-.08,0a7.88,7.88,0,0,0-2.26-.39L494,84.7l-.1-.58-1.91.32a11.78,11.78,0,0,1,1.69-.82l.16-.08.22,0,2.76.44Zm-.4-5.36-.71.28.78-.57Zm-.19.71-.59,2.21,0,.09-.08,0A11.09,11.09,0,0,0,491,84.41l1.88-2.12-.46-.39-1.64,1.87a8.65,8.65,0,0,1,1-2l.09-.12.13,0Zm-5.29,20,0-.89,2.07,1.53,0,.94Zm1.29,1.88h-1.25l-.1-.08,0-.89Zm.41-14.47,0,.94-1.29-1,0-.9Zm-1.2-1.82,0-.82,0,0,1.09.81,0,.94ZM490.65,90l0,.94-1.41-1,0-.9Zm.06,1.89,0,1-1.53-1.14,0-.9Zm.06,1.89,0,1-1.66-1.23,0-.9Zm.07,1.9,0,.94-1.78-1.32,0-.9Zm.06,1.89,0,1L489,97.09l0-.9Zm.06,1.89,0,.94-2-1.5,0-.9Zm.22-18a9.22,9.22,0,0,0-.9,1.77V81.13h-.6v2.61a9.39,9.39,0,0,0-1.13-2.32l0-.16,1.31-2.52,1.36,2.61v.08ZM489,83.69,487.4,82l-.43.41,2.15,2.19h0a10,10,0,0,0-2.81-1.58l-.1-.14-.61-2.28,2.23.9.14.07.08.11A8.38,8.38,0,0,1,489,83.69Zm-3.64-3.77-.07-.27.73.54Zm.36,3.65.17,0,.15,0,1.68.81-1.68-.28-.1.58,1.62.27a8.42,8.42,0,0,0-2.23.39h-.08l-.08,0L483.15,84Zm-.37,2.52.09-.12.11-.06a7.91,7.91,0,0,1,2-.35l-1.5.5.19.56,1.22-.41a8.66,8.66,0,0,0-2.14,2l-.06.06-.05.07-1.28.26Zm.54,2.34A7.58,7.58,0,0,1,488,86.57l-1.1,1.09.43.42,1.38-1.37a11.27,11.27,0,0,0-1.15,3.07h0l0,.12-.1.11-1.29,1.34-.26-2.59v-.19Zm2.27,1.4a14.47,14.47,0,0,1,.54-1.75l-.1,3.17-.49-1.11V90Zm3.3,7.54-.15-4.61.53-1.21,0,1.69h.6l0-1.61.58,1.52.56-.21L493,91.34l1.15,1.2.43-.41-.19-.2.17-1.74.45,1.69.58-.15-.44-1.65,1,1.39.49-.34-1.08-1.54,1.5,1,.32-.5-1.41-.9.48.1.17.3.35-.19.63.13.13-.58-.18,0,.36-.34-1.44-1.49,1.77,1,.3-.51-1.94-1.12,2.17.48.13-.57-1.79-.4,1.83-.06,0-.59-2,.07,2-.64-.19-.56-1.94.63,1-.66h0l.74-.49-.34-.49-.54.36-1.46-.22,1.9-.21-.07-.59-2.15.24,1.94-.83-.24-.54-1.95.83,1.61-1.37-.39-.44-1.6,1.36,1.14-1.81-.51-.31,0,0-.08-.19-.57.23.08-.31-.21-.05.39-.29-.35-.47L493.11,80l1.38-1.78-.47-.35-1.51,1.93.83-2.26-.56-.2-.7,1.9.18-2-.59-.06-.2,2.23L491,77.14l-.59.11.44,2.2-.7-1.35.26-.5-.53-.27-.07.13,0,0-.53.27.22.41-.66,1.26.44-2.19-.59-.11-.44,2.21-.2-2.23-.59,0,.18,2L487,77.2l-.56.2.82,2.27-1.5-1.94-.47.36,1.38,1.77-1.87-1.36-.35.48.49.35-.26.07.07.24-.61-.25-.12.28-.43.27,1.14,1.81-1.6-1.36-.39.44,1.61,1.37-1.95-.83-.24.54,1.93.83-2.14-.24-.07.59,1.9.21-1.31.2-.51-.34-.33.49.52.35,0,.14.15,0,1,.68-1.95-.63-.18.56,2,.64-2.05-.07,0,.59,1.84.06-1.79.4.13.57,2.17-.48-1.94,1.12.3.51,1.77-1-1.45,1.49.36.34-.17,0,.12.58.64-.13.35.19.17-.3.47-.1-1.4.9.32.5,1.5-1-1.09,1.54.49.34,1-1.39-.44,1.65.57.15.46-1.69.17,1.74-.2.2.44.41,1.15-1.2L486.37,93l.56.21.58-1.52,0,1.61h.6l0-1.69.47,1.08-.13,3.77c-3.63-1.21-7.08-2.59-9.49-5.11-5.52-5.76-4.59-11-2.3-15h0v0h0v0h0v0h0l.1-.17h0l.09-.17h0l.1-.15h0l1.34,0,27.11.31h0c-.05,8.81-2.44,17.57-7.2,24.13A43.31,43.31,0,0,0,491.49,97.37Zm4.67-9.74,1.18,1.21-.55-.11Zm-1.55-6.21.27-1,.49-.19Zm-9.43,0-.81-1.27.52.21Zm-1.37,6.21-.63,1.1-.54.11ZM505.55,75H490.49c5.07-3.14,6.58-7.44,9.33-7.12,1.57.18,3.79.73,5.25.92h0a48.25,48.25,0,0,1,.48,6.14Zm-.94-7c-.73-.12-1.45-.26-2.17-.4s-1.69-.33-2.53-.43a3.15,3.15,0,0,0-1,0c-1.53.29-2.83,1.79-3.85,2.87a24.33,24.33,0,0,1-5,4.32l-1.17.63-11.67-.13c1.51-3.38,6.08-8.73,8.5-8.35,1.17.19,2.74.67,4,1,.13,1.37.27,2.75.5,4.09.09.49.06,1.45.89,1.42s.72-1,.81-1.48a31,31,0,0,1,1.33-4.37c3-1.94,3.08-7.84,8.82-7.9a3.12,3.12,0,0,1,.52,0h0A43.73,43.73,0,0,1,505,68ZM485.16,56l3.44-.71c2,.14,4.42-1.53,5.39-1.71a.78.78,0,0,1,.66.41l-2,1,.25.53,2.2-1a1,1,0,0,1,.37.8l-2.36.57.14.57,2.49-.58a.55.55,0,0,1-.14.61c-1.11.71-2.57.74-3.74,1.25.45,1.76,1.6,3.76,1.54,5.57,0,.19,0,.38,0,.57l-1.28-2.68-.54.26,1.67,3.42a16.33,16.33,0,0,1-.5,1.88l-1.31-4.45-.58.16,1.56,5.25a25.61,25.61,0,0,0-1.11,3.71c-.18,1,0,1.27-.22.07-.62-3.45-.65-9.55-2.27-11.82a10.34,10.34,0,0,0-2.22-1,6.56,6.56,0,0,0-1.88-.36c-.44.12-1.28.29-1.73.41C483.07,57.79,483.6,55.83,485.16,56Zm-6.53-3.5c-1.36-.4-1.31-.36.08-.39a19.92,19.92,0,0,1,7.16,1,13.83,13.83,0,0,1,2.94,1.45h-.26l-2.81.58C483.59,53.69,481.14,53.24,478.63,52.52Zm35.46,58.6L501,98.17c9.7-16.2,7.26-42.36-7.41-53.58a26.16,26.16,0,0,0-16.26-5.35c-10.47,0-18.16,5.21-23.06,12.83l-15-14.78,3.89-4.87c22.67-3.65,45.66-4.13,68.29,0l10.82,13.54c-4.11,3.4-7.15,7.68-7.78,13.26-.75,6.62,2.18,13.29,4.68,19.29s5,12.08,5,18.6C524.08,102.5,519.46,107.28,514.09,111.12Z"/><rect class="cls-2" x="402.85" y="24.41" width="1.62" height="89.74"/><path class="cls-2" d="M66.23,70.6c0,18.23-12.19,30.32-32,30.32H6.05V40.46H34.23C54,40.46,66.23,52.56,66.23,70.6Zm-18.79.09c0-9.86-5.86-15.34-13.95-15.34h-9V86h9C41.58,86,47.44,80.55,47.44,70.69Z"/><path class="cls-2" d="M93.67,55.35v8.37h21v14h-21V86h27.91v14.88H75.25V40.46H121.3V55.35Z"/><path class="cls-2" d="M163.34,100.92H144.93V55.35H126.51V40.46h55.25V55.35H163.34Z"/><path class="cls-2" d="M242.32,99.53l-.84,1.39H223.16l-11.44-21.2h-4.38v21.2H188.93V40.46h27.72c15.9,0,24.46,7.82,24.46,20.19,0,7.9-4.47,13.39-11.07,16.46Zm-35-31.91h8.56c3.44,0,6.42-2,6.42-6a6.07,6.07,0,0,0-6.42-6.32h-8.56Z"/><path class="cls-2" d="M311.9,99.53l-.84,1.39H292.27l-3.53-9.11H267.06l-3.72,9.11H245.39l-.84-1.39,27.82-59.07h11.72ZM284.09,79.72l-5.86-15.44L271.9,79.72Z"/><path class="cls-2" d="M374.59,40.46v60.46H362.5L336.08,70.6v30.32H317.67V40.46h12.09l26.42,30.33V40.46Z"/></svg>